<svg width="500" height="500" viewBox="0 0 500 500" fill="none" xmlns="http://www.w3.org/2000/svg">
  <defs>
    <linearGradient id="paint0_linear" x1="50" y1="50" x2="450" y2="450" gradientUnits="userSpaceOnUse">
      <stop stop-color="#FF69B4"/>
      <stop offset="1" stop-color="#FF1493"/>
    </linearGradient>
    <filter id="filter0_d" x="0" y="0" width="500" height="500" filterUnits="userSpaceOnUse" color-interpolation-filters="sRGB">
      <feFlood flood-opacity="0" result="BackgroundImageFix"/>
      <feColorMatrix in="SourceAlpha" type="matrix" values="0 0 0 0 0 0 0 0 0 0 0 0 0 0 0 0 0 0 127 0"/>
      <feOffset dy="10"/>
      <feGaussianBlur stdDeviation="15"/>
      <feColorMatrix type="matrix" values="0 0 0 0 1 0 0 0 0 0.411765 0 0 0 0 0.705882 0 0 0 0.3 0"/>
      <feBlend mode="normal" in2="BackgroundImageFix" result="effect1_dropShadow"/>
      <feBlend mode="normal" in="SourceGraphic" in2="effect1_dropShadow" result="shape"/>
    </filter>
  </defs>
  <g filter="url(#filter0_d)">
    <rect x="100" y="150" width="300" height="250" rx="30" fill="url(#paint0_linear)"/>
    <rect x="80" y="150" width="340" height="60" rx="15" fill="#FFC0CB"/>
    <path d="M250 150V400" stroke="white" stroke-width="40" stroke-linecap="round"/>
    <path d="M100 280H400" stroke="white" stroke-width="20" stroke-linecap="round"/>
    <path d="M250 150C250 100 180 50 150 100C120 150 250 150 250 150Z" fill="white" opacity="0.8"/>
    <path d="M250 150C250 100 320 50 350 100C380 150 250 150 250 150Z" fill="white" opacity="0.8"/>
    <path d="M250 230L275 255C310 290 310 340 275 375C240 410 190 410 155 375C120 340 120 290 155 255L250 230Z" fill="#FFFFFF" opacity="0.2"/>
  </g>
</svg>
